HIERARCHY
ROOT Hips
{
  OFFSET -329.682 96.711 -36.4497
  CHANNELS 6 Xposition Yposition Zposition Zrotation Xrotation Yrotation
  JOINT RightUpLeg
  {
    OFFSET -8.9458 -8.66707 0.101652
    CHANNELS 3 Zrotation Xrotation Yrotation
    JOINT RightLeg
    {
      OFFSET 0 -44.4227 1.3727
      CHANNELS 3 Zrotation Xrotation Yrotation
      JOINT RightFoot
      {
        OFFSET 0.253549 -42.0924 -1.46059
        CHANNELS 3 Zrotation Xrotation Yrotation
        JOINT RightToes
        {
          OFFSET 0.04 -4.41509 8.4991
          CHANNELS 3 Zrotation Xrotation Yrotation
          End Site
          {
            OFFSET -0.08 -0.137448 9.77979
          }
        }
      }
    }
  }
  JOINT Spine
  {
    OFFSET 0 11.8905 0
    CHANNELS 3 Zrotation Xrotation Yrotation
    JOINT Spine1
    {
      OFFSET 0 25.6574 0.127663
      CHANNELS 3 Zrotation Xrotation Yrotation
      JOINT HEad
      {
        OFFSET 0 8.73416 0.011341
        CHANNELS 3 Zrotation Xrotation Yrotation
        End Site
        {
          OFFSET -0.29 12.7742 2.51395
        }
      }
      JOINT LeftShoulder1
      {
        OFFSET 8.99 -0.362252 -0.22
        CHANNELS 3 Zrotation Xrotation Yrotation
        JOINT LeftArm
        {
          OFFSET 10.2827 -0.00338 0.322123
          CHANNELS 3 Zrotation Xrotation Yrotation
          JOINT LeftForeArm
          {
            OFFSET 32.7669 0.099144 -1.42434
            CHANNELS 3 Zrotation Xrotation Yrotation
            JOINT LeftHand
            {
              OFFSET 27.5643 0.085362 1.02216
              CHANNELS 3 Zrotation Xrotation Yrotation
              End Site
              {
                OFFSET 16.7443 -0.6 1.50291
              }
            }
          }
        }
      }
      JOINT RightShoulder
      {
        OFFSET -8.99 -0.362252 -0.22
        CHANNELS 3 Zrotation Xrotation Yrotation
        JOINT RightArm
        {
          OFFSET -10.2827 -0.00338 0.322123
          CHANNELS 3 Zrotation Xrotation Yrotation
          JOINT RightForeArm
          {
            OFFSET -32.8971 0.099144 -1.42434
            CHANNELS 3 Zrotation Xrotation Yrotation
            JOINT RightHand
            {
              OFFSET -27.4921 0.085362 1.02216
              CHANNELS 3 Zrotation Xrotation Yrotation
              End Site
              {
                OFFSET -16.6312 -0.6 1.50291
              }
            }
          }
        }
      }
    }
  }
  JOINT LeftUpLeg
  {
    OFFSET 8.9458 -8.66707 0.101652
    CHANNELS 3 Zrotation Xrotation Yrotation
    JOINT LeftLeg
    {
      OFFSET 0 -44.4227 1.3727
      CHANNELS 3 Zrotation Xrotation Yrotation
      JOINT LeftFoot
      {
        OFFSET -0.253549 -42.0924 -1.46059
        CHANNELS 3 Zrotation Xrotation Yrotation
        JOINT LeftToes
        {
          OFFSET -0.04 -4.41509 8.4991
          CHANNELS 3 Zrotation Xrotation Yrotation
          End Site
          {
            OFFSET 0.08 -0.047448 9.77979
          }
        }
      }
    }
  }
}
MOTION
Frames:	8
Frame Time:	0.0166667
-308.719 92.0268 -38.0545 9.69867 -17.6802 37.3678 -14.8607 3.65337 14.9052 30.7757 39.9538 -53.6558 -27.1484 2.18202 -0.938888 0.0462048 0.000533403 0.662642 0.901352 30.9255 -6.65742 -0.00843912 0.0143504 0.0161944 -1.9597 2.48995 12.7859 8.82781e-032 -1.59028e-015 3.18055e-015 -161.183 -65.649 -131.95 -68.3352 42.3151 -33.856 18.1037 21.4373 -14.2731 14.6553 13.1007 2.43208 109.106 -4.9706 77.4035 14.2681 57.7988 97.2927 15.4704 17.3831 -3.10211 33.2853 -13.5449 -17.3434 -38.4385 9.56639 56.3624 1.23919 -4.25004 -0.289565 -2.05368e-009 1.55988e-007 -4.83939e-009 
-306.912 91.6396 -37.7962 9.10789 -18.3263 35.7585 -15.3393 3.1809 15.4247 31.4017 41.3885 -53.1647 -25.5205 2.22937 -0.931866 0.0462048 0.000533403 0.662642 2.72465 29.6862 -7.12094 -0.0088757 0.0147574 0.0148337 -2.48154 3.34214 14.163 -3.97569e-016 -1.59028e-015 -0 -164.792 -66.6187 -135.19 -70.3049 44.3274 -32.9965 18.1574 20.8826 -14.5583 13.4211 14.1442 2.99276 109.169 -4.91654 76.9975 14.154 57.4528 97.1128 15.6144 17.7912 -2.90671 32.1674 -15.2148 -22.6071 -36.7126 8.94443 61.8079 -0.938645 -4.17661 -0.398798 -2.05367e-009 1.55988e-007 -4.8394e-009 
-304.928 91.294 -37.4825 8.49598 -18.7943 34.314 -15.9542 2.81722 15.7493 31.8639 42.6509 -52.3048 -23.8452 2.22472 -0.931167 0.0462048 0.000533403 0.662642 4.49052 28.2134 -7.43886 -0.00905931 0.0150925 0.0128845 -2.9378 4.355 15.2117 -0 0 6.36111e-015 -167.589 -67.6504 -137.471 -72.151 46.3713 -32.2745 18.7236 20.0091 -14.559 12.1515 15.2296 3.2215 109.321 -4.89526 76.6068 14.1428 57.0913 96.9333 15.9737 18.2843 -2.05487 31.037 -16.7491 -27.4299 -35.3093 9.16134 67.0039 -2.78147 -4.11502 -0.524163 -2.05368e-009 1.55988e-007 -4.8394e-009 
-302.864 91.0125 -37.0956 7.87631 -19.0881 33.0389 -16.6542 2.58008 15.8906 32.1087 43.6565 -51.0965 -22.1723 2.15271 -0.933157 0.0462048 0.000533403 0.662642 6.02998 26.9862 -7.63528 -0.00904261 0.0153306 0.0106528 -3.15784 5.06618 16.0112 -8.82781e-032 -1.59028e-015 -3.18055e-015 -169.658 -68.3938 -139.089 -73.7937 48.4121 -31.7491 18.9217 19.27 -14.7213 10.995 15.9645 3.32009 109.541 -4.89195 76.276 14.2319 56.7365 96.7266 16.3258 18.6355 -1.86633 29.8537 -17.8913 -31.8237 -34.605 10.2627 71.7376 -4.84962 -3.92134 -0.67912 -2.05368e-009 1.55988e-007 -4.8394e-009 
-300.799 90.8184 -36.6656 7.26275 -19.2185 31.9373 -17.3996 2.46519 15.8692 32.1043 44.3354 -49.5655 -20.5386 2.03073 -0.936427 0.0462048 0.000533403 0.662642 7.3191 25.9743 -7.73182 -0.00887826 0.015447 0.00849238 -3.15466 5.50225 16.5899 -0 -1.59028e-015 -0 -170.806 -68.9317 -139.841 -75.104 50.416 -31.5259 19.4187 18.3669 -14.7434 9.95288 16.3971 3.30388 109.817 -4.90071 76.0156 14.3997 56.4158 96.5067 16.7893 18.9821 -1.32458 28.6736 -18.6174 -35.737 -34.6029 11.61 75.9458 -6.85357 -3.63726 -0.813039 -2.05367e-009 1.55988e-007 -4.83939e-009 
-298.784 90.7302 -36.2209 6.67508 -19.2068 31.0053 -18.1589 2.46686 15.7173 31.8529 44.6483 -47.7585 -18.9654 1.8791 -0.939567 0.0462048 0.000533403 0.662642 8.33293 25.1583 -7.73832 -0.00861893 0.0154168 0.00675732 -2.9484 5.69649 16.9782 3.97569e-016 -7.95139e-016 -3.18055e-015 -170.979 -69.324 -139.667 -76.0111 52.3817 -31.6711 19.6673 17.5905 -14.902 9.05617 16.57 3.20671 110.117 -4.94283 75.8236 14.6212 56.1424 96.2794 17.2013 19.2185 -1.20651 27.5605 -19.0328 -39.1106 -35.0681 12.7308 79.6186 -8.53444 -3.33651 -0.898308 -2.05367e-009 1.55988e-007 -4.83939e-009 
-296.831 90.7541 -35.7616 6.13752 -19.0855 30.2288 -18.9176 2.59918 15.4812 31.3861 44.5947 -45.7416 -17.4447 1.70316 -0.942883 0.0462048 0.000533403 0.662642 9.05499 24.5261 -7.656 -0.00831718 0.015215 0.0054301 -2.56551 5.68693 17.206 7.95139e-016 -7.95139e-016 6.36111e-015 -170.292 -69.6027 -138.686 -76.5073 54.313 -32.2015 20.0639 16.7806 -15.0093 8.34702 16.5248 3.05306 110.394 -5.03837 75.6811 14.8625 55.9273 96.0832 17.5919 19.4346 -0.874495 26.6933 -19.0027 -40.8137 -35.4685 13.7699 81.7325 -9.72761 -3.10199 -0.937047 -2.05367e-009 1.55988e-007 -4.8394e-009 
-294.946 90.8268 -35.2841 5.68188 -18.8989 29.6069 -19.2129 2.73287 15.0262 31.454 43.7085 -43.9331 -20.7493 1.76798 -0.987937 0.0462048 0.000533403 0.662642 9.49024 24.0717 -7.5044 -0.00781011 0.0148168 0.00425278 -2.0412 5.51644 17.301 -1.19271e-015 0 6.36111e-015 -168.959 -69.7866 -137.106 -76.6499 56.2269 -33.0871 20.2629 16.0908 -15.2164 7.85463 16.309 2.85919 110.61 -5.20418 75.5663 15.0947 55.7696 95.95 17.8732 19.5814 -0.792844 26.1468 -18.7696 -40.9881 -35.8505 14.7267 82.5394 -10.4292 -2.99703 -0.977706 -2.05367e-009 1.55988e-007 -4.83939e-009 
